<svg width="70" height="15" viewBox="0 0 70 15" fill="none" xmlns="http://www.w3.org/2000/svg">
<g clip-path="url(#clip0_12828_42362)">
<path d="M29.8643 14.5786L26.0888 8.77406C26.0478 8.71478 26.0797 8.6327 26.1481 8.6099C26.7318 8.4184 27.247 8.14937 27.6848 7.79827C28.6332 7.04135 29.1074 5.93789 29.1074 4.50157C29.1074 3.15188 28.6332 2.08034 27.6848 1.27783C26.7363 0.479871 25.4322 0.0786133 23.7725 0.0786133H17.4162C17.3569 0.0786133 17.3068 0.128771 17.3068 0.188047V14.6379C17.3068 14.6972 17.3569 14.7473 17.4162 14.7473H20.2204C20.2797 14.7473 20.3299 14.6972 20.3299 14.6379V9.23459C20.3299 9.17531 20.38 9.12516 20.4393 9.12516H23.0247C23.0612 9.12516 23.0976 9.1434 23.1159 9.17531L26.4947 14.6926C26.5129 14.7245 26.5494 14.7428 26.5859 14.7428H29.7686C29.8598 14.7473 29.9145 14.6516 29.8643 14.5786ZM20.3299 2.63207C20.3299 2.5728 20.38 2.52264 20.4393 2.52264H23.4214C24.2786 2.52264 24.9215 2.69591 25.3456 3.04701C25.7697 3.39355 25.9794 3.9316 25.9794 4.6566C25.9794 5.3816 25.7697 5.91965 25.3456 6.26619C24.9215 6.61273 24.2832 6.79056 23.4214 6.79056H20.4393C20.38 6.79056 20.3299 6.74041 20.3299 6.68113V2.63207Z" fill="#0B0B0C"/>
<path d="M36.7677 0.188047V14.6379C36.7677 14.6972 36.7175 14.7473 36.6583 14.7473H33.8084C33.7491 14.7473 33.699 14.6972 33.699 14.6379V0.188047C33.699 0.128771 33.7491 0.0786133 33.8084 0.0786133H36.6583C36.7175 0.0786133 36.7677 0.128771 36.7677 0.188047Z" fill="#0B0B0C"/>
<path d="M11.2376 0.151569L7.25238 11.1041C7.2159 11.1998 7.08367 11.1998 7.04719 11.1041L4.20647 3.29324C4.17911 3.22028 4.23383 3.14732 4.30678 3.14732H7.03807C7.08367 3.14732 7.12927 3.11541 7.14295 3.06981L8.05946 0.219966C8.08226 0.151569 8.0321 0.0786133 7.95458 0.0786133H0.171091C0.0935755 0.0786133 0.0434182 0.151569 0.0707767 0.224525L5.34641 14.6744C5.36009 14.7154 5.40112 14.7473 5.44672 14.7473H8.87109C8.91669 14.7473 8.95773 14.72 8.97141 14.6744L14.2334 0.224525C14.2607 0.151569 14.206 0.0786133 14.133 0.0786133H11.3425C11.2923 0.0786133 11.2513 0.105972 11.2376 0.151569Z" fill="#0B0B0C"/>
<path d="M52.3757 3.17468H44.6789C44.6196 3.17468 44.5694 3.22484 44.5694 3.28412V5.76918C44.5694 5.82846 44.6196 5.87861 44.6789 5.87861H50.7069C50.7661 5.87861 50.8163 5.92877 50.8163 5.98805V8.83789C50.8163 8.89717 50.7661 8.94733 50.7069 8.94733H44.6789C44.6196 8.94733 44.5694 8.99748 44.5694 9.05676V14.6379C44.5694 14.6972 44.5193 14.7473 44.46 14.7473H41.6102C41.5509 14.7473 41.5007 14.6972 41.5007 14.6379V0.188047C41.5007 0.128771 41.5509 0.0786133 41.6102 0.0786133H52.3712C52.4305 0.0786133 52.4806 0.128771 52.4806 0.188047V3.06525C52.4852 3.12453 52.435 3.17468 52.3757 3.17468Z" fill="#0B0B0C"/>
<path d="M68.5216 0.242764L63.4284 9.23459C63.4193 9.25283 63.4147 9.27107 63.4147 9.28931V14.6425C63.4147 14.7017 63.3646 14.7519 63.3053 14.7519H60.4554C60.3962 14.7519 60.346 14.7017 60.346 14.6425V9.28475C60.346 9.26651 60.3414 9.24827 60.3323 9.23003L55.2345 0.242764C55.1935 0.169808 55.2436 0.0786133 55.3303 0.0786133H58.1482C58.1892 0.0786133 58.2257 0.101412 58.244 0.13333L61.7869 6.38475C61.8279 6.4577 61.9328 6.4577 61.9784 6.38475L65.5213 0.13333C65.5396 0.0968523 65.576 0.0786133 65.6171 0.0786133H68.435C68.5079 0.0786133 68.5627 0.169808 68.5216 0.242764Z" fill="#0B0B0C"/>
</g>
<defs>
<clipPath id="clip0_12828_42362">
<rect width="68.4724" height="14.6733" fill="white" transform="translate(0.0629883 0.0786133)"/>
</clipPath>
</defs>
</svg>
